<svg width="50" height="50" xmlns="http://www.w3.org/2000/svg" xml:space="preserve" version="1.1">
 <g class="layer">
  <title>Layer 1</title>
  <path stroke="#3e8c23" stroke-width="4" stroke-miterlimit="10" fill="#666666" id="svg_2" d="m48.36413,1.81976l-46.72825,0l0,46.36049l46.72825,0l0,-46.36049z" class="st1"/>
  <path stroke="null" fill-opacity="0.5" fill="#FFFFFF" opacity="0.9" id="svg_3" d="m15.67542,27.08341l-7.59941,0c-0.28998,0 -0.48996,0.19969 -0.48996,0.48923l0,16.17461c0,0.28955 0.18999,0.48923 0.48996,0.48923l7.59941,0c0.28998,0 0.48996,-0.19969 0.48996,-0.48923l0,-16.07477c0.09999,-0.28955 -0.18999,-0.58908 -0.48996,-0.58908z" class="st2"/>
  <path stroke="null" stroke-width="0" fill="#FFFFFF" opacity="0.9" id="svg_4" d="m28.7997,9.57288l-7.59941,0c-0.28998,0 -0.48996,0.16197 -0.48996,0.39683l0,34.14326c0,0.23486 0.18999,0.39683 0.48996,0.39683l7.59941,0c0.28998,0 0.48996,-0.16197 0.48996,-0.39683l0,-34.14326c0,-0.23486 -0.18999,-0.39683 -0.48996,-0.39683z" class="st3"/>
  <path stroke="null" fill-opacity="0.5" fill="#FFFFFF" opacity="0.9" id="svg_5" d="m42.09324,16.63415l-7.59941,0c-0.28998,0 -0.48996,0.18513 -0.48996,0.45356l0,27.00996c0,0.26843 0.18999,0.45356 0.48996,0.45356l7.59941,0c0.28998,0 0.48996,-0.18513 0.48996,-0.45356l0,-26.92666c0,-0.26843 -0.18999,-0.54612 -0.48996,-0.54612l0,0.00926z" class="st2"/>
 </g>

</svg>